<svg xmlns="http://www.w3.org/2000/svg" viewBox="0 0 400 400" width="100%" height="100%">
        <!-- University Shield -->
        <g transform="translate(200, 160)">
            <path d="M-70,-80 L70,-80 L70,-10 C70,40 0,90 0,90 C0,90 -70,40 -70,-10 Z" fill="#0f172a" stroke="#d97706" stroke-width="6"/>
            <!-- Palm Tree in center of shield -->
            <path d="M-8,10 C-8,0 -20,-10 -30,-15 C-20,-20 -8,-30 -5,-40 C2,-40 15,-20 25,-15 C15,-10 5,0 5,10 Z" fill="#d97706"/>
            <rect x="-4" y="10" width="8" height="30" fill="#d97706"/>
            <!-- Swords crossing under palm -->
            <path d="M-40,45 L40,-35 M40,45 L-40,-35" stroke="#ffffff" stroke-width="4" stroke-linecap="round"/>
        </g>
        <text x="200" y="300" font-family="'Tajawal', sans-serif" font-weight="800" font-size="26" fill="#0f172a" text-anchor="middle">جامعة الملك سعود</text>
        <text x="200" y="330" font-family="'Tajawal', sans-serif" font-weight="500" font-size="15" fill="#94a3b8" text-anchor="middle">King Saud University</text>
    </svg>