<svg xmlns="http://www.w3.org/2000/svg" viewBox="0 0 400 400" width="100%" height="100%">
        <defs>
            <linearGradient id="edu-green" x1="0%" y1="0%" x2="100%" y2="100%">
                <stop offset="0%" stop-color="#059669"/>
                <stop offset="100%" stop-color="#064e3b"/>
            </linearGradient>
        </defs>
        <!-- Dynamic shapes forming an open book and a flying bird/progress -->
        <g transform="translate(200, 180)" fill="url(#edu-green)">
            <!-- Left Wing / Pages -->
            <path d="M-10,30 C-40,-20 -90,-40 -130,-40 C-90,0 -40,40 -10,70 Z"/>
            <path d="M-10,0 C-35,-40 -75,-55 -110,-55 C-80,-20 -35,20 -10,40 Z" opacity="0.8"/>
            <path d="M-10,-30 C-30,-60 -60,-70 -90,-70 C-70,-40 -30,-10 -10,10 Z" opacity="0.6"/>
            
            <!-- Right Wing / Pages -->
            <path d="M10,30 C40,-20 90,-40 130,-40 C90,0 40,40 10,70 Z"/>
            <path d="M10,0 C35,-40 75,-55 110,-55 C80,-20 35,20 10,40 Z" opacity="0.8"/>
            <path d="M10,-30 C30,-60 60,-70 90,-70 C70,-40 30,-10 10,10 Z" opacity="0.6"/>
            
            <!-- Center Flame/Torch of knowledge -->
            <path d="M0,20 C-10,5 0,-25 0,-45 C0,-25 10,5 0,20 Z" fill="#d97706"/>
        </g>
        <text x="200" y="315" font-family="'Tajawal', sans-serif" font-weight="800" font-size="28" fill="#064e3b" text-anchor="middle">وزارة التعليــم</text>
        <text x="200" y="345" font-family="'Tajawal', sans-serif" font-weight="500" font-size="14" fill="#94a3b8" text-anchor="middle">Ministry of Education</text>
    </svg>