<svg xmlns="http://www.w3.org/2000/svg" viewBox="0 0 400 400" width="100%" height="100%">
        <defs>
            <radialGradient id="gold-glow" cx="50%" cy="50%" r="50%">
                <stop offset="0%" stop-color="#f59e0b" stop-opacity="1"/>
                <stop offset="100%" stop-color="#d97706" stop-opacity="1"/>
            </radialGradient>
            <linearGradient id="saudi-green" x1="0%" y1="0%" x2="100%" y2="100%">
                <stop offset="0%" stop-color="#10b981"/>
                <stop offset="100%" stop-color="#047857"/>
            </linearGradient>
        </defs>
        <circle cx="200" cy="200" r="180" fill="none" stroke="url(#saudi-green)" stroke-width="6"/>
        <circle cx="200" cy="200" r="150" fill="none" stroke="#f59e0b" stroke-width="2" stroke-dasharray="10 5"/>
        <g transform="translate(200, 200)">
            <!-- Stylized Sun/Starburst representing Vision 2030 -->
            <path d="M 0,-80 L 15,-20 L 75,-35 L 30,10 L 60,60 L 0,30 L -60,60 L -30,10 L -75,-35 L -15,-20 Z" fill="url(#gold-glow)"/>
            <circle cx="0" cy="0" r="35" fill="#047857"/>
            <!-- Palm Tree in center -->
            <path d="M-5,15 C-5,5 -15,-5 -25,-10 C-15,-15 -5,-25 -2,-35 C2,-35 15,-15 25,-10 C15,-5 5,5 5,15 Z" fill="#ffffff"/>
            <rect x="-3" y="15" width="6" height="20" rx="2" fill="#ffffff"/>
        </g>
        <text x="200" y="320" font-family="'Tajawal', sans-serif" font-weight="900" font-size="28" fill="#10b981" text-anchor="middle">VISION رؤيــــة</text>
        <text x="200" y="355" font-family="'Tajawal', sans-serif" font-weight="800" font-size="36" fill="#d97706" text-anchor="middle">2030</text>
    </svg>